<?xml version="1.0" encoding="UTF-8" standalone="no"?>
<svg
   version="1.0"
   width="329.39999pt"
   height="331.31662pt"
   viewBox="0 0 329.39999 331.31662"
   preserveAspectRatio="xMidYMid"
   id="svg158"
   sodipodi:docname="pokeball-icon-20.svg"
   inkscape:version="1.2.1 (9c6d41e410, 2022-07-14)"
   xmlns:inkscape="http://www.inkscape.org/namespaces/inkscape"
   xmlns:sodipodi="http://sodipodi.sourceforge.net/DTD/sodipodi-0.dtd"
   xmlns="http://www.w3.org/2000/svg"
   xmlns:svg="http://www.w3.org/2000/svg">
  <defs
     id="defs162" />
  <sodipodi:namedview
     id="namedview160"
     pagecolor="#ffffff"
     bordercolor="#000000"
     borderopacity="0.25"
     inkscape:showpageshadow="2"
     inkscape:pageopacity="0.0"
     inkscape:pagecheckerboard="true"
     inkscape:deskcolor="#d1d1d1"
     inkscape:document-units="pt"
     showgrid="false"
     inkscape:zoom="0.73909091"
     inkscape:cx="184.68635"
     inkscape:cy="220.54121"
     inkscape:window-width="1366"
     inkscape:window-height="745"
     inkscape:window-x="-8"
     inkscape:window-y="-8"
     inkscape:window-maximized="1"
     inkscape:current-layer="svg158" />
  <path
     d="M 148.7,0.49906337 C 94,6.3990634 47,37.199063 20.2,84.599063 10.8,101.19906 3,123.89906 1.1,139.79906 l -0.7,5.8 h 40.1 40.1 l 1.2,-4.3 c 3.2,-11.9 12,-26.6 22.1,-36.7 28.7,-28.799997 74.6,-33.399997 108.2,-10.899997 16.3,10.899997 28.5,26.899997 34.5,45.099997 l 2.3,6.8 h 40.2 40.3 l -1,-6.3 c -2.6,-17.6 -10.1,-39 -19.1,-54.699997 -25.2,-44.1 -67.7,-74.1 -117.1,-82.4999996 C 181.3,0.19906337 159,-0.60093663 148.7,0.49906337 Z"
     id="path150"
     style="fill:#ffffff;stroke:none;stroke-width:0.0992126;stroke-dasharray:none;fill-opacity:0.5" />
  <path
     d="m 157.2,111.69906 c -11.9,1.5 -22.6,6.9 -31.4,15.9 -20.9,21.2 -20.7,55.4 0.4,76.5 10.4,10.4 23.6,15.8 38.5,15.8 15,0 27.9,-5.3 38.4,-15.9 10.6,-10.5 15.8,-23.2 15.8,-38.4 0,-33.2 -28.6,-58.2 -61.7,-53.9 z"
     id="path152"
     style="fill:#ffffff;stroke:none;stroke-width:0.0992126;stroke-dasharray:none;fill-opacity:0.5" />
  <path
     d="m 1.8,195.99906 c 9.1,50.5 43.7,96 90.4,118.6 80.7,39.1 177.3,7.4 219.3,-72 8.2,-15.6 14.4,-34 17,-51.3 l 0.9,-5.7 h -40.3 -40.2 l -2.6,7.8 c -4.1,12.2 -10.7,22.5 -21,32.8 -10.7,10.7 -20.7,17 -34.6,21.6 -9.2,3.1 -10.1,3.2 -26,3.2 -15.4,0 -17.1,-0.2 -25,-2.8 -15,-5 -23.3,-9.9 -34.4,-20.5 -11.1,-10.7 -20.2,-25.2 -23.5,-37.9 l -1.2,-4.2 H 40.3 0 Z"
     id="path154"
     style="fill:#ffffff;stroke:none;stroke-width:0.0992126;stroke-dasharray:none;fill-opacity:0.5" />
</svg>
